<mxfile host="Electron" agent="Mozilla/5.0 (Windows NT 10.0; Win64; x64) AppleWebKit/537.36 (KHTML, like Gecko) draw.io/24.7.17 Chrome/128.0.6613.36 Electron/32.0.1 Safari/537.36" version="24.7.17">
  <diagram name="Page-1" id="2YBvvXClWsGukQMizWep">
    <mxGraphModel dx="3748" dy="2072" grid="0" gridSize="10" guides="0" tooltips="1" connect="1" arrows="1" fold="1" page="0" pageScale="1" pageWidth="850" pageHeight="1100" math="0" shadow="0">
      <root>
        <mxCell id="0" />
        <mxCell id="1" parent="0" />
        <mxCell id="aM9ryv3xv72pqoxQDRHE-5" value="&lt;font style=&quot;font-size: 14px;&quot;&gt;Maitre d&#39;hotel&lt;/font&gt;" style="shape=umlLifeline;perimeter=lifelinePerimeter;whiteSpace=wrap;html=1;container=0;dropTarget=0;collapsible=0;recursiveResize=0;outlineConnect=0;portConstraint=eastwest;newEdgeStyle={&quot;edgeStyle&quot;:&quot;elbowEdgeStyle&quot;,&quot;elbow&quot;:&quot;vertical&quot;,&quot;curved&quot;:0,&quot;rounded&quot;:0};" parent="1" vertex="1">
          <mxGeometry x="220" y="40" width="100" height="1460" as="geometry" />
        </mxCell>
        <mxCell id="aM9ryv3xv72pqoxQDRHE-6" value="" style="html=1;points=[];perimeter=orthogonalPerimeter;outlineConnect=0;targetShapes=umlLifeline;portConstraint=eastwest;newEdgeStyle={&quot;edgeStyle&quot;:&quot;elbowEdgeStyle&quot;,&quot;elbow&quot;:&quot;vertical&quot;,&quot;curved&quot;:0,&quot;rounded&quot;:0};" parent="aM9ryv3xv72pqoxQDRHE-5" vertex="1">
          <mxGeometry x="45" y="70" width="10" height="50" as="geometry" />
        </mxCell>
        <mxCell id="6j3AMUGMRrYXmEL0zxzn-4" value="" style="html=1;points=[];perimeter=orthogonalPerimeter;outlineConnect=0;targetShapes=umlLifeline;portConstraint=eastwest;newEdgeStyle={&quot;edgeStyle&quot;:&quot;elbowEdgeStyle&quot;,&quot;elbow&quot;:&quot;vertical&quot;,&quot;curved&quot;:0,&quot;rounded&quot;:0};" parent="aM9ryv3xv72pqoxQDRHE-5" vertex="1">
          <mxGeometry x="45" y="145" width="10" height="45" as="geometry" />
        </mxCell>
        <mxCell id="6j3AMUGMRrYXmEL0zxzn-7" value="" style="endArrow=classic;html=1;rounded=0;" parent="aM9ryv3xv72pqoxQDRHE-5" source="6j3AMUGMRrYXmEL0zxzn-4" target="6j3AMUGMRrYXmEL0zxzn-4" edge="1">
          <mxGeometry width="50" height="50" relative="1" as="geometry">
            <mxPoint x="70" y="260" as="sourcePoint" />
            <mxPoint x="110" y="170" as="targetPoint" />
            <Array as="points">
              <mxPoint x="80" y="150" />
              <mxPoint x="80" y="170" />
            </Array>
          </mxGeometry>
        </mxCell>
        <mxCell id="aM9ryv3xv72pqoxQDRHE-7" value="&lt;font style=&quot;font-size: 18px;&quot;&gt;1.Arrivé au restaurant&lt;/font&gt;" style="html=1;verticalAlign=bottom;endArrow=block;edgeStyle=elbowEdgeStyle;elbow=vertical;curved=0;rounded=0;" parent="1" target="aM9ryv3xv72pqoxQDRHE-6" edge="1">
          <mxGeometry x="-0.0556" relative="1" as="geometry">
            <mxPoint x="85" y="120" as="sourcePoint" />
            <Array as="points">
              <mxPoint x="180" y="120" />
            </Array>
            <mxPoint as="offset" />
          </mxGeometry>
        </mxCell>
        <mxCell id="aM9ryv3xv72pqoxQDRHE-8" value="&lt;font style=&quot;font-size: 14px;&quot;&gt;1.1.Demande réservation&lt;/font&gt;" style="html=1;verticalAlign=bottom;endArrow=open;dashed=1;endSize=8;edgeStyle=elbowEdgeStyle;elbow=horizontal;curved=0;rounded=0;" parent="1" edge="1">
          <mxGeometry x="0.1667" y="20" relative="1" as="geometry">
            <mxPoint x="85" y="150" as="targetPoint" />
            <Array as="points">
              <mxPoint x="190" y="150" />
            </Array>
            <mxPoint x="265" y="150" as="sourcePoint" />
            <mxPoint as="offset" />
          </mxGeometry>
        </mxCell>
        <mxCell id="6j3AMUGMRrYXmEL0zxzn-2" value="&lt;font style=&quot;font-size: 14px;&quot;&gt;chef de rang&lt;/font&gt;" style="shape=umlLifeline;perimeter=lifelinePerimeter;whiteSpace=wrap;html=1;container=0;dropTarget=0;collapsible=0;recursiveResize=0;outlineConnect=0;portConstraint=eastwest;newEdgeStyle={&quot;edgeStyle&quot;:&quot;elbowEdgeStyle&quot;,&quot;elbow&quot;:&quot;vertical&quot;,&quot;curved&quot;:0,&quot;rounded&quot;:0};" parent="1" vertex="1">
          <mxGeometry x="410" y="40" width="100" height="1470" as="geometry" />
        </mxCell>
        <mxCell id="6j3AMUGMRrYXmEL0zxzn-3" value="" style="html=1;points=[];perimeter=orthogonalPerimeter;outlineConnect=0;targetShapes=umlLifeline;portConstraint=eastwest;newEdgeStyle={&quot;edgeStyle&quot;:&quot;elbowEdgeStyle&quot;,&quot;elbow&quot;:&quot;vertical&quot;,&quot;curved&quot;:0,&quot;rounded&quot;:0};" parent="6j3AMUGMRrYXmEL0zxzn-2" vertex="1">
          <mxGeometry x="45" y="70" width="10" height="220" as="geometry" />
        </mxCell>
        <mxCell id="6j3AMUGMRrYXmEL0zxzn-13" value="" style="html=1;points=[];perimeter=orthogonalPerimeter;outlineConnect=0;targetShapes=umlLifeline;portConstraint=eastwest;newEdgeStyle={&quot;edgeStyle&quot;:&quot;elbowEdgeStyle&quot;,&quot;elbow&quot;:&quot;vertical&quot;,&quot;curved&quot;:0,&quot;rounded&quot;:0};" parent="6j3AMUGMRrYXmEL0zxzn-2" vertex="1">
          <mxGeometry x="45" y="320" width="10" height="50" as="geometry" />
        </mxCell>
        <mxCell id="6j3AMUGMRrYXmEL0zxzn-5" value="" style="html=1;verticalAlign=bottom;endArrow=block;edgeStyle=elbowEdgeStyle;elbow=vertical;curved=0;rounded=0;" parent="1" target="6j3AMUGMRrYXmEL0zxzn-2" edge="1">
          <mxGeometry x="-0.3889" relative="1" as="geometry">
            <mxPoint x="270" y="230" as="sourcePoint" />
            <Array as="points">
              <mxPoint x="365" y="230" />
            </Array>
            <mxPoint x="450" y="230" as="targetPoint" />
            <mxPoint as="offset" />
          </mxGeometry>
        </mxCell>
        <mxCell id="6j3AMUGMRrYXmEL0zxzn-8" value="" style="html=1;verticalAlign=bottom;endArrow=block;edgeStyle=elbowEdgeStyle;elbow=vertical;curved=0;rounded=0;" parent="1" edge="1">
          <mxGeometry x="-0.3889" relative="1" as="geometry">
            <mxPoint x="450" y="260" as="sourcePoint" />
            <Array as="points">
              <mxPoint x="465" y="260" />
            </Array>
            <mxPoint x="80" y="260" as="targetPoint" />
            <mxPoint as="offset" />
          </mxGeometry>
        </mxCell>
        <mxCell id="6j3AMUGMRrYXmEL0zxzn-9" value="" style="html=1;verticalAlign=bottom;endArrow=block;edgeStyle=elbowEdgeStyle;elbow=vertical;curved=0;rounded=0;" parent="1" edge="1">
          <mxGeometry x="-0.3889" relative="1" as="geometry">
            <mxPoint x="357.5" y="290" as="sourcePoint" />
            <Array as="points">
              <mxPoint x="452.5" y="290" />
            </Array>
            <mxPoint x="87.5" y="290" as="targetPoint" />
            <mxPoint as="offset" />
          </mxGeometry>
        </mxCell>
        <mxCell id="6j3AMUGMRrYXmEL0zxzn-12" value="" style="html=1;verticalAlign=bottom;endArrow=open;dashed=1;endSize=8;edgeStyle=elbowEdgeStyle;elbow=vertical;curved=0;rounded=0;" parent="1" edge="1">
          <mxGeometry x="0.2702" y="30" relative="1" as="geometry">
            <mxPoint x="459.5000000000001" y="320" as="targetPoint" />
            <Array as="points">
              <mxPoint x="70" y="320" />
            </Array>
            <mxPoint x="90" y="320" as="sourcePoint" />
            <mxPoint as="offset" />
          </mxGeometry>
        </mxCell>
        <mxCell id="6j3AMUGMRrYXmEL0zxzn-14" value="&lt;font style=&quot;font-size: 14px;&quot;&gt;chef de cuisine&lt;/font&gt;" style="shape=umlLifeline;perimeter=lifelinePerimeter;whiteSpace=wrap;html=1;container=0;dropTarget=0;collapsible=0;recursiveResize=0;outlineConnect=0;portConstraint=eastwest;newEdgeStyle={&quot;edgeStyle&quot;:&quot;elbowEdgeStyle&quot;,&quot;elbow&quot;:&quot;vertical&quot;,&quot;curved&quot;:0,&quot;rounded&quot;:0};" parent="1" vertex="1">
          <mxGeometry x="590" y="40" width="100" height="1470" as="geometry" />
        </mxCell>
        <mxCell id="6j3AMUGMRrYXmEL0zxzn-16" value="" style="html=1;points=[];perimeter=orthogonalPerimeter;outlineConnect=0;targetShapes=umlLifeline;portConstraint=eastwest;newEdgeStyle={&quot;edgeStyle&quot;:&quot;elbowEdgeStyle&quot;,&quot;elbow&quot;:&quot;vertical&quot;,&quot;curved&quot;:0,&quot;rounded&quot;:0};" parent="6j3AMUGMRrYXmEL0zxzn-14" vertex="1">
          <mxGeometry x="45" y="320" width="10" height="50" as="geometry" />
        </mxCell>
        <mxCell id="6j3AMUGMRrYXmEL0zxzn-75" value="" style="html=1;points=[];perimeter=orthogonalPerimeter;outlineConnect=0;targetShapes=umlLifeline;portConstraint=eastwest;newEdgeStyle={&quot;edgeStyle&quot;:&quot;elbowEdgeStyle&quot;,&quot;elbow&quot;:&quot;vertical&quot;,&quot;curved&quot;:0,&quot;rounded&quot;:0};" parent="6j3AMUGMRrYXmEL0zxzn-14" vertex="1">
          <mxGeometry x="45" y="1350" width="10" height="90" as="geometry" />
        </mxCell>
        <mxCell id="6j3AMUGMRrYXmEL0zxzn-17" value="&lt;font style=&quot;font-size: 14px;&quot;&gt;chef de partie&lt;/font&gt;" style="shape=umlLifeline;perimeter=lifelinePerimeter;whiteSpace=wrap;html=1;container=0;dropTarget=0;collapsible=0;recursiveResize=0;outlineConnect=0;portConstraint=eastwest;newEdgeStyle={&quot;edgeStyle&quot;:&quot;elbowEdgeStyle&quot;,&quot;elbow&quot;:&quot;vertical&quot;,&quot;curved&quot;:0,&quot;rounded&quot;:0};" parent="1" vertex="1">
          <mxGeometry x="780" y="40" width="100" height="1480" as="geometry" />
        </mxCell>
        <mxCell id="6j3AMUGMRrYXmEL0zxzn-19" value="" style="html=1;points=[];perimeter=orthogonalPerimeter;outlineConnect=0;targetShapes=umlLifeline;portConstraint=eastwest;newEdgeStyle={&quot;edgeStyle&quot;:&quot;elbowEdgeStyle&quot;,&quot;elbow&quot;:&quot;vertical&quot;,&quot;curved&quot;:0,&quot;rounded&quot;:0};" parent="6j3AMUGMRrYXmEL0zxzn-17" vertex="1">
          <mxGeometry x="45" y="320" width="10" height="50" as="geometry" />
        </mxCell>
        <mxCell id="6j3AMUGMRrYXmEL0zxzn-38" value="" style="html=1;points=[];perimeter=orthogonalPerimeter;outlineConnect=0;targetShapes=umlLifeline;portConstraint=eastwest;newEdgeStyle={&quot;edgeStyle&quot;:&quot;elbowEdgeStyle&quot;,&quot;elbow&quot;:&quot;vertical&quot;,&quot;curved&quot;:0,&quot;rounded&quot;:0};" parent="6j3AMUGMRrYXmEL0zxzn-17" vertex="1">
          <mxGeometry x="45" y="420" width="10" height="70" as="geometry" />
        </mxCell>
        <mxCell id="6j3AMUGMRrYXmEL0zxzn-51" value="" style="html=1;verticalAlign=bottom;endArrow=block;edgeStyle=elbowEdgeStyle;elbow=vertical;curved=0;rounded=0;" parent="6j3AMUGMRrYXmEL0zxzn-17" source="6j3AMUGMRrYXmEL0zxzn-38" target="6j3AMUGMRrYXmEL0zxzn-38" edge="1">
          <mxGeometry x="-0.3889" relative="1" as="geometry">
            <mxPoint x="60" y="480" as="sourcePoint" />
            <Array as="points">
              <mxPoint x="100" y="450" />
            </Array>
            <mxPoint x="54.995217391304486" y="475" as="targetPoint" />
            <mxPoint as="offset" />
          </mxGeometry>
        </mxCell>
        <mxCell id="6j3AMUGMRrYXmEL0zxzn-20" value="&lt;font style=&quot;font-size: 14px;&quot;&gt;commis de cuisine&lt;/font&gt;" style="shape=umlLifeline;perimeter=lifelinePerimeter;whiteSpace=wrap;html=1;container=0;dropTarget=0;collapsible=0;recursiveResize=0;outlineConnect=0;portConstraint=eastwest;newEdgeStyle={&quot;edgeStyle&quot;:&quot;elbowEdgeStyle&quot;,&quot;elbow&quot;:&quot;vertical&quot;,&quot;curved&quot;:0,&quot;rounded&quot;:0};" parent="1" vertex="1">
          <mxGeometry x="1000" y="40" width="100" height="1480" as="geometry" />
        </mxCell>
        <mxCell id="6j3AMUGMRrYXmEL0zxzn-22" value="" style="html=1;points=[];perimeter=orthogonalPerimeter;outlineConnect=0;targetShapes=umlLifeline;portConstraint=eastwest;newEdgeStyle={&quot;edgeStyle&quot;:&quot;elbowEdgeStyle&quot;,&quot;elbow&quot;:&quot;vertical&quot;,&quot;curved&quot;:0,&quot;rounded&quot;:0};" parent="6j3AMUGMRrYXmEL0zxzn-20" vertex="1">
          <mxGeometry x="45" y="320" width="10" height="50" as="geometry" />
        </mxCell>
        <mxCell id="6j3AMUGMRrYXmEL0zxzn-39" value="" style="html=1;points=[];perimeter=orthogonalPerimeter;outlineConnect=0;targetShapes=umlLifeline;portConstraint=eastwest;newEdgeStyle={&quot;edgeStyle&quot;:&quot;elbowEdgeStyle&quot;,&quot;elbow&quot;:&quot;vertical&quot;,&quot;curved&quot;:0,&quot;rounded&quot;:0};" parent="6j3AMUGMRrYXmEL0zxzn-20" vertex="1">
          <mxGeometry x="45" y="420" width="10" height="70" as="geometry" />
        </mxCell>
        <mxCell id="6j3AMUGMRrYXmEL0zxzn-58" value="" style="html=1;points=[];perimeter=orthogonalPerimeter;outlineConnect=0;targetShapes=umlLifeline;portConstraint=eastwest;newEdgeStyle={&quot;edgeStyle&quot;:&quot;elbowEdgeStyle&quot;,&quot;elbow&quot;:&quot;vertical&quot;,&quot;curved&quot;:0,&quot;rounded&quot;:0};" parent="6j3AMUGMRrYXmEL0zxzn-20" vertex="1">
          <mxGeometry x="45" y="830" width="10" height="70" as="geometry" />
        </mxCell>
        <mxCell id="6j3AMUGMRrYXmEL0zxzn-87" value="" style="endArrow=classic;html=1;rounded=0;" parent="6j3AMUGMRrYXmEL0zxzn-20" source="6j3AMUGMRrYXmEL0zxzn-22" target="6j3AMUGMRrYXmEL0zxzn-22" edge="1">
          <mxGeometry width="50" height="50" relative="1" as="geometry">
            <mxPoint x="60" y="330" as="sourcePoint" />
            <mxPoint x="60" y="360" as="targetPoint" />
            <Array as="points">
              <mxPoint x="130" y="330" />
              <mxPoint x="130" y="345" />
              <mxPoint x="130" y="360" />
            </Array>
          </mxGeometry>
        </mxCell>
        <mxCell id="6j3AMUGMRrYXmEL0zxzn-23" value="&lt;font style=&quot;font-size: 14px;&quot;&gt;Serveur&lt;/font&gt;" style="shape=umlLifeline;perimeter=lifelinePerimeter;whiteSpace=wrap;html=1;container=0;dropTarget=0;collapsible=0;recursiveResize=0;outlineConnect=0;portConstraint=eastwest;newEdgeStyle={&quot;edgeStyle&quot;:&quot;elbowEdgeStyle&quot;,&quot;elbow&quot;:&quot;vertical&quot;,&quot;curved&quot;:0,&quot;rounded&quot;:0};" parent="1" vertex="1">
          <mxGeometry x="1200" y="40" width="100" height="1480" as="geometry" />
        </mxCell>
        <mxCell id="6j3AMUGMRrYXmEL0zxzn-40" value="" style="html=1;points=[];perimeter=orthogonalPerimeter;outlineConnect=0;targetShapes=umlLifeline;portConstraint=eastwest;newEdgeStyle={&quot;edgeStyle&quot;:&quot;elbowEdgeStyle&quot;,&quot;elbow&quot;:&quot;vertical&quot;,&quot;curved&quot;:0,&quot;rounded&quot;:0};" parent="6j3AMUGMRrYXmEL0zxzn-23" vertex="1">
          <mxGeometry x="45" y="420" width="10" height="130" as="geometry" />
        </mxCell>
        <mxCell id="6j3AMUGMRrYXmEL0zxzn-41" value="" style="html=1;points=[];perimeter=orthogonalPerimeter;outlineConnect=0;targetShapes=umlLifeline;portConstraint=eastwest;newEdgeStyle={&quot;edgeStyle&quot;:&quot;elbowEdgeStyle&quot;,&quot;elbow&quot;:&quot;vertical&quot;,&quot;curved&quot;:0,&quot;rounded&quot;:0};" parent="6j3AMUGMRrYXmEL0zxzn-23" vertex="1">
          <mxGeometry x="45" y="690" width="10" height="130" as="geometry" />
        </mxCell>
        <mxCell id="6j3AMUGMRrYXmEL0zxzn-54" value="" style="html=1;verticalAlign=bottom;endArrow=block;edgeStyle=elbowEdgeStyle;elbow=vertical;curved=0;rounded=0;" parent="6j3AMUGMRrYXmEL0zxzn-23" edge="1">
          <mxGeometry x="-0.3889" relative="1" as="geometry">
            <mxPoint x="55" y="740" as="sourcePoint" />
            <Array as="points">
              <mxPoint x="100" y="740" />
            </Array>
            <mxPoint x="55" y="760" as="targetPoint" />
            <mxPoint as="offset" />
          </mxGeometry>
        </mxCell>
        <mxCell id="6j3AMUGMRrYXmEL0zxzn-26" value="&lt;font style=&quot;font-size: 14px;&quot;&gt;Commis de salle&lt;/font&gt;" style="shape=umlLifeline;perimeter=lifelinePerimeter;whiteSpace=wrap;html=1;container=0;dropTarget=0;collapsible=0;recursiveResize=0;outlineConnect=0;portConstraint=eastwest;newEdgeStyle={&quot;edgeStyle&quot;:&quot;elbowEdgeStyle&quot;,&quot;elbow&quot;:&quot;vertical&quot;,&quot;curved&quot;:0,&quot;rounded&quot;:0};" parent="1" vertex="1">
          <mxGeometry x="1390" y="40" width="100" height="1490" as="geometry" />
        </mxCell>
        <mxCell id="6j3AMUGMRrYXmEL0zxzn-70" value="" style="html=1;points=[];perimeter=orthogonalPerimeter;outlineConnect=0;targetShapes=umlLifeline;portConstraint=eastwest;newEdgeStyle={&quot;edgeStyle&quot;:&quot;elbowEdgeStyle&quot;,&quot;elbow&quot;:&quot;vertical&quot;,&quot;curved&quot;:0,&quot;rounded&quot;:0};" parent="6j3AMUGMRrYXmEL0zxzn-26" vertex="1">
          <mxGeometry x="45" y="1070" width="10" height="70" as="geometry" />
        </mxCell>
        <mxCell id="6j3AMUGMRrYXmEL0zxzn-29" value="&lt;font style=&quot;font-size: 14px;&quot;&gt;Plongeur&lt;/font&gt;" style="shape=umlLifeline;perimeter=lifelinePerimeter;whiteSpace=wrap;html=1;container=0;dropTarget=0;collapsible=0;recursiveResize=0;outlineConnect=0;portConstraint=eastwest;newEdgeStyle={&quot;edgeStyle&quot;:&quot;elbowEdgeStyle&quot;,&quot;elbow&quot;:&quot;vertical&quot;,&quot;curved&quot;:0,&quot;rounded&quot;:0};" parent="1" vertex="1">
          <mxGeometry x="1580" y="40" width="100" height="1480" as="geometry" />
        </mxCell>
        <mxCell id="6j3AMUGMRrYXmEL0zxzn-42" value="" style="html=1;points=[];perimeter=orthogonalPerimeter;outlineConnect=0;targetShapes=umlLifeline;portConstraint=eastwest;newEdgeStyle={&quot;edgeStyle&quot;:&quot;elbowEdgeStyle&quot;,&quot;elbow&quot;:&quot;vertical&quot;,&quot;curved&quot;:0,&quot;rounded&quot;:0};" parent="6j3AMUGMRrYXmEL0zxzn-29" vertex="1">
          <mxGeometry x="45" y="690" width="10" height="180" as="geometry" />
        </mxCell>
        <mxCell id="6j3AMUGMRrYXmEL0zxzn-85" value="" style="endArrow=classic;html=1;rounded=0;" parent="6j3AMUGMRrYXmEL0zxzn-29" source="6j3AMUGMRrYXmEL0zxzn-42" target="6j3AMUGMRrYXmEL0zxzn-29" edge="1">
          <mxGeometry width="50" height="50" relative="1" as="geometry">
            <mxPoint x="60" y="710" as="sourcePoint" />
            <mxPoint x="110" y="830" as="targetPoint" />
            <Array as="points">
              <mxPoint x="147" y="731" />
              <mxPoint x="147" y="780" />
            </Array>
          </mxGeometry>
        </mxCell>
        <mxCell id="6j3AMUGMRrYXmEL0zxzn-33" value="&lt;font style=&quot;font-size: 14px;&quot;&gt;6.Transmettre commande&amp;nbsp;&lt;/font&gt;" style="html=1;verticalAlign=bottom;endArrow=block;edgeStyle=elbowEdgeStyle;elbow=horizontal;curved=0;rounded=0;" parent="1" target="6j3AMUGMRrYXmEL0zxzn-16" edge="1">
          <mxGeometry x="-0.0909" relative="1" as="geometry">
            <mxPoint x="470" y="370" as="sourcePoint" />
            <Array as="points">
              <mxPoint x="545" y="370" />
            </Array>
            <mxPoint x="630" y="370" as="targetPoint" />
            <mxPoint as="offset" />
          </mxGeometry>
        </mxCell>
        <mxCell id="6j3AMUGMRrYXmEL0zxzn-35" value="&lt;font style=&quot;font-size: 14px;&quot;&gt;7.Répartir taches de préparation&lt;/font&gt;" style="html=1;verticalAlign=bottom;endArrow=block;edgeStyle=elbowEdgeStyle;elbow=vertical;curved=0;rounded=0;" parent="1" source="6j3AMUGMRrYXmEL0zxzn-14" edge="1">
          <mxGeometry x="-0.0219" y="10" relative="1" as="geometry">
            <mxPoint x="660" y="400" as="sourcePoint" />
            <Array as="points">
              <mxPoint x="735" y="400" />
            </Array>
            <mxPoint x="825" y="400" as="targetPoint" />
            <mxPoint as="offset" />
          </mxGeometry>
        </mxCell>
        <mxCell id="6j3AMUGMRrYXmEL0zxzn-37" value="&lt;font style=&quot;font-size: 14px;&quot;&gt;8.1: Livrer les ingredients&lt;/font&gt;" style="html=1;verticalAlign=bottom;endArrow=open;dashed=1;endSize=8;edgeStyle=elbowEdgeStyle;elbow=vertical;curved=0;rounded=0;" parent="1" source="6j3AMUGMRrYXmEL0zxzn-20" edge="1">
          <mxGeometry x="0.0888" relative="1" as="geometry">
            <mxPoint x="830" y="400" as="targetPoint" />
            <Array as="points">
              <mxPoint x="935" y="400" />
            </Array>
            <mxPoint x="1010" y="400" as="sourcePoint" />
            <mxPoint as="offset" />
          </mxGeometry>
        </mxCell>
        <mxCell id="6j3AMUGMRrYXmEL0zxzn-43" value="&lt;font style=&quot;font-size: 14px;&quot;&gt;4.1.Passer Commande&lt;/font&gt;" style="text;html=1;align=center;verticalAlign=middle;resizable=0;points=[];autosize=1;strokeColor=none;fillColor=none;" parent="1" vertex="1">
          <mxGeometry x="170" y="298" width="170" height="30" as="geometry" />
        </mxCell>
        <mxCell id="6j3AMUGMRrYXmEL0zxzn-46" value="&lt;font style=&quot;font-size: 14px;&quot;&gt;4.Présenter Carte de menu&lt;/font&gt;" style="text;html=1;align=center;verticalAlign=middle;resizable=0;points=[];autosize=1;strokeColor=none;fillColor=none;" parent="1" vertex="1">
          <mxGeometry x="150" y="268" width="190" height="30" as="geometry" />
        </mxCell>
        <mxCell id="6j3AMUGMRrYXmEL0zxzn-47" value="&lt;font style=&quot;font-size: 14px;&quot;&gt;3.Déplacer le clients à leur table&lt;/font&gt;" style="text;html=1;align=center;verticalAlign=middle;resizable=0;points=[];autosize=1;strokeColor=none;fillColor=none;" parent="1" vertex="1">
          <mxGeometry x="125" y="238" width="220" height="30" as="geometry" />
        </mxCell>
        <mxCell id="6j3AMUGMRrYXmEL0zxzn-48" value="&lt;font style=&quot;font-size: 14px;&quot;&gt;2.Assigation des tables&lt;/font&gt;" style="text;html=1;align=center;verticalAlign=middle;resizable=0;points=[];autosize=1;strokeColor=none;fillColor=none;" parent="1" vertex="1">
          <mxGeometry x="280" y="208" width="170" height="30" as="geometry" />
        </mxCell>
        <mxCell id="6j3AMUGMRrYXmEL0zxzn-49" value="&lt;font style=&quot;font-size: 14px;&quot;&gt;10.Transporter les plats&lt;/font&gt;" style="html=1;verticalAlign=bottom;endArrow=block;edgeStyle=elbowEdgeStyle;elbow=vertical;curved=0;rounded=0;" parent="1" source="6j3AMUGMRrYXmEL0zxzn-39" target="6j3AMUGMRrYXmEL0zxzn-40" edge="1">
          <mxGeometry x="-0.1111" relative="1" as="geometry">
            <mxPoint x="1060" y="490" as="sourcePoint" />
            <Array as="points">
              <mxPoint x="1155" y="490" />
            </Array>
            <mxPoint x="1240" y="490" as="targetPoint" />
            <mxPoint as="offset" />
          </mxGeometry>
        </mxCell>
        <mxCell id="6j3AMUGMRrYXmEL0zxzn-53" value="&lt;font style=&quot;font-size: 14px;&quot;&gt;9.Réaliser la rectte&lt;/font&gt;" style="text;html=1;align=center;verticalAlign=middle;resizable=0;points=[];autosize=1;strokeColor=none;fillColor=none;" parent="1" vertex="1">
          <mxGeometry x="880" y="480" width="140" height="30" as="geometry" />
        </mxCell>
        <mxCell id="6j3AMUGMRrYXmEL0zxzn-56" value="&lt;font style=&quot;font-size: 14px;&quot;&gt;13.Transporter les plats sales&lt;/font&gt;" style="html=1;verticalAlign=bottom;endArrow=block;edgeStyle=elbowEdgeStyle;elbow=vertical;curved=0;rounded=0;" parent="1" source="6j3AMUGMRrYXmEL0zxzn-23" target="6j3AMUGMRrYXmEL0zxzn-29" edge="1">
          <mxGeometry x="-0.0909" relative="1" as="geometry">
            <mxPoint x="1335" y="840" as="sourcePoint" />
            <Array as="points">
              <mxPoint x="1490" y="850" />
            </Array>
            <mxPoint x="1580" y="850" as="targetPoint" />
            <mxPoint as="offset" />
          </mxGeometry>
        </mxCell>
        <mxCell id="6j3AMUGMRrYXmEL0zxzn-57" value="&lt;font style=&quot;font-size: 14px;&quot;&gt;12.Débarasser la Table&lt;/font&gt;" style="text;html=1;align=center;verticalAlign=middle;resizable=0;points=[];autosize=1;strokeColor=none;fillColor=none;" parent="1" vertex="1">
          <mxGeometry x="1290" y="765" width="170" height="30" as="geometry" />
        </mxCell>
        <mxCell id="6j3AMUGMRrYXmEL0zxzn-59" value="&lt;font style=&quot;font-size: 14px;&quot;&gt;14.Récupérer les ustensiles sales&lt;/font&gt;" style="html=1;verticalAlign=bottom;endArrow=block;edgeStyle=elbowEdgeStyle;elbow=vertical;curved=0;rounded=0;" parent="1" edge="1">
          <mxGeometry x="0.2911" relative="1" as="geometry">
            <mxPoint x="1400" y="900" as="sourcePoint" />
            <Array as="points">
              <mxPoint x="1620" y="900" />
            </Array>
            <mxPoint x="1050" y="900" as="targetPoint" />
            <mxPoint x="-1" as="offset" />
          </mxGeometry>
        </mxCell>
        <mxCell id="6j3AMUGMRrYXmEL0zxzn-60" value="&lt;font style=&quot;font-size: 14px;&quot;&gt;Client&lt;/font&gt;" style="shape=umlLifeline;perimeter=lifelinePerimeter;whiteSpace=wrap;html=1;container=0;dropTarget=0;collapsible=0;recursiveResize=0;outlineConnect=0;portConstraint=eastwest;newEdgeStyle={&quot;edgeStyle&quot;:&quot;elbowEdgeStyle&quot;,&quot;elbow&quot;:&quot;vertical&quot;,&quot;curved&quot;:0,&quot;rounded&quot;:0};" parent="1" vertex="1">
          <mxGeometry x="20" y="40" width="100" height="1460" as="geometry" />
        </mxCell>
        <mxCell id="6j3AMUGMRrYXmEL0zxzn-62" value="" style="html=1;points=[];perimeter=orthogonalPerimeter;outlineConnect=0;targetShapes=umlLifeline;portConstraint=eastwest;newEdgeStyle={&quot;edgeStyle&quot;:&quot;elbowEdgeStyle&quot;,&quot;elbow&quot;:&quot;vertical&quot;,&quot;curved&quot;:0,&quot;rounded&quot;:0};" parent="6j3AMUGMRrYXmEL0zxzn-60" vertex="1">
          <mxGeometry x="45" y="145" width="10" height="45" as="geometry" />
        </mxCell>
        <mxCell id="6j3AMUGMRrYXmEL0zxzn-1" value="" style="html=1;points=[];perimeter=orthogonalPerimeter;outlineConnect=0;targetShapes=umlLifeline;portConstraint=eastwest;newEdgeStyle={&quot;edgeStyle&quot;:&quot;elbowEdgeStyle&quot;,&quot;elbow&quot;:&quot;vertical&quot;,&quot;curved&quot;:0,&quot;rounded&quot;:0};" parent="6j3AMUGMRrYXmEL0zxzn-60" vertex="1">
          <mxGeometry x="45" y="70" width="10" height="220" as="geometry" />
        </mxCell>
        <mxCell id="6j3AMUGMRrYXmEL0zxzn-66" value="" style="html=1;points=[];perimeter=orthogonalPerimeter;outlineConnect=0;targetShapes=umlLifeline;portConstraint=eastwest;newEdgeStyle={&quot;edgeStyle&quot;:&quot;elbowEdgeStyle&quot;,&quot;elbow&quot;:&quot;vertical&quot;,&quot;curved&quot;:0,&quot;rounded&quot;:0};" parent="6j3AMUGMRrYXmEL0zxzn-60" vertex="1">
          <mxGeometry x="45" y="520" width="10" height="256" as="geometry" />
        </mxCell>
        <mxCell id="6j3AMUGMRrYXmEL0zxzn-71" value="" style="html=1;points=[];perimeter=orthogonalPerimeter;outlineConnect=0;targetShapes=umlLifeline;portConstraint=eastwest;newEdgeStyle={&quot;edgeStyle&quot;:&quot;elbowEdgeStyle&quot;,&quot;elbow&quot;:&quot;vertical&quot;,&quot;curved&quot;:0,&quot;rounded&quot;:0};" parent="6j3AMUGMRrYXmEL0zxzn-60" vertex="1">
          <mxGeometry x="45" y="1070" width="10" height="70" as="geometry" />
        </mxCell>
        <mxCell id="6j3AMUGMRrYXmEL0zxzn-67" value="&lt;font style=&quot;font-size: 14px;&quot;&gt;10.Livrer les plats cuits&lt;/font&gt;" style="html=1;verticalAlign=bottom;endArrow=open;dashed=1;endSize=8;edgeStyle=elbowEdgeStyle;elbow=vertical;curved=0;rounded=0;" parent="1" source="6j3AMUGMRrYXmEL0zxzn-23" target="6j3AMUGMRrYXmEL0zxzn-60" edge="1">
          <mxGeometry x="0.2969" relative="1" as="geometry">
            <mxPoint x="420" y="570" as="targetPoint" />
            <Array as="points">
              <mxPoint x="525" y="570" />
            </Array>
            <mxPoint x="1130" y="570" as="sourcePoint" />
            <mxPoint as="offset" />
          </mxGeometry>
        </mxCell>
        <mxCell id="6j3AMUGMRrYXmEL0zxzn-68" value="&lt;font style=&quot;font-size: 14px;&quot;&gt;11.Présenter addition&lt;/font&gt;" style="html=1;verticalAlign=bottom;endArrow=block;edgeStyle=elbowEdgeStyle;elbow=vertical;curved=0;rounded=0;" parent="1" source="6j3AMUGMRrYXmEL0zxzn-41" target="6j3AMUGMRrYXmEL0zxzn-60" edge="1">
          <mxGeometry x="-0.0015" relative="1" as="geometry">
            <mxPoint x="1200" y="758.2857142857143" as="sourcePoint" />
            <Array as="points">
              <mxPoint x="60" y="740" />
            </Array>
            <mxPoint x="330.00393939393945" y="740.0000000000002" as="targetPoint" />
            <mxPoint x="1" as="offset" />
          </mxGeometry>
        </mxCell>
        <mxCell id="6j3AMUGMRrYXmEL0zxzn-72" value="&lt;font style=&quot;font-size: 14px;&quot;&gt;5.Apporte le pain&amp;nbsp; pour assurer la satisfaction du client&lt;/font&gt;" style="html=1;verticalAlign=bottom;endArrow=block;edgeStyle=elbowEdgeStyle;elbow=vertical;curved=0;rounded=0;" parent="1" source="6j3AMUGMRrYXmEL0zxzn-60" target="6j3AMUGMRrYXmEL0zxzn-26" edge="1">
          <mxGeometry x="-0.0909" relative="1" as="geometry">
            <mxPoint x="690" y="1160" as="sourcePoint" />
            <Array as="points">
              <mxPoint x="931" y="1160" />
            </Array>
            <mxPoint x="1070" y="1160" as="targetPoint" />
            <mxPoint as="offset" />
          </mxGeometry>
        </mxCell>
        <mxCell id="6j3AMUGMRrYXmEL0zxzn-73" value="&lt;font style=&quot;font-size: 14px;&quot;&gt;Menu&lt;/font&gt;" style="shape=umlLifeline;perimeter=lifelinePerimeter;whiteSpace=wrap;html=1;container=0;dropTarget=0;collapsible=0;recursiveResize=0;outlineConnect=0;portConstraint=eastwest;newEdgeStyle={&quot;edgeStyle&quot;:&quot;elbowEdgeStyle&quot;,&quot;elbow&quot;:&quot;vertical&quot;,&quot;curved&quot;:0,&quot;rounded&quot;:0};" parent="1" vertex="1">
          <mxGeometry x="1790" y="40" width="100" height="1480" as="geometry" />
        </mxCell>
        <mxCell id="6j3AMUGMRrYXmEL0zxzn-74" value="" style="html=1;points=[];perimeter=orthogonalPerimeter;outlineConnect=0;targetShapes=umlLifeline;portConstraint=eastwest;newEdgeStyle={&quot;edgeStyle&quot;:&quot;elbowEdgeStyle&quot;,&quot;elbow&quot;:&quot;vertical&quot;,&quot;curved&quot;:0,&quot;rounded&quot;:0};" parent="6j3AMUGMRrYXmEL0zxzn-73" vertex="1">
          <mxGeometry x="45" y="1350" width="10" height="90" as="geometry" />
        </mxCell>
        <mxCell id="6j3AMUGMRrYXmEL0zxzn-76" value="&lt;font style=&quot;font-size: 14px;&quot;&gt;7.1.Annuler la rectte du menu&lt;/font&gt;" style="html=1;verticalAlign=bottom;endArrow=block;edgeStyle=elbowEdgeStyle;elbow=vertical;curved=0;rounded=0;" parent="1" source="6j3AMUGMRrYXmEL0zxzn-75" target="6j3AMUGMRrYXmEL0zxzn-73" edge="1">
          <mxGeometry x="-0.0909" relative="1" as="geometry">
            <mxPoint x="650" y="1450" as="sourcePoint" />
            <Array as="points">
              <mxPoint x="1522" y="1440" />
            </Array>
            <mxPoint x="1991" y="1440" as="targetPoint" />
            <mxPoint as="offset" />
          </mxGeometry>
        </mxCell>
        <mxCell id="6j3AMUGMRrYXmEL0zxzn-80" value="" style="ellipse;whiteSpace=wrap;html=1;" parent="1" vertex="1">
          <mxGeometry x="-30" y="-30" width="40" height="30" as="geometry" />
        </mxCell>
        <mxCell id="6j3AMUGMRrYXmEL0zxzn-81" value="" style="endArrow=none;html=1;rounded=0;exitX=0.5;exitY=1;exitDx=0;exitDy=0;" parent="1" source="6j3AMUGMRrYXmEL0zxzn-80" edge="1">
          <mxGeometry width="50" height="50" relative="1" as="geometry">
            <mxPoint x="-10" y="10" as="sourcePoint" />
            <mxPoint x="-10" y="80" as="targetPoint" />
          </mxGeometry>
        </mxCell>
        <mxCell id="6j3AMUGMRrYXmEL0zxzn-82" value="" style="endArrow=none;html=1;rounded=0;" parent="1" edge="1">
          <mxGeometry width="50" height="50" relative="1" as="geometry">
            <mxPoint x="-55" y="20" as="sourcePoint" />
            <mxPoint x="35" y="20" as="targetPoint" />
          </mxGeometry>
        </mxCell>
        <mxCell id="6j3AMUGMRrYXmEL0zxzn-83" value="" style="endArrow=none;html=1;rounded=0;" parent="1" edge="1">
          <mxGeometry width="50" height="50" relative="1" as="geometry">
            <mxPoint x="-40" y="110" as="sourcePoint" />
            <mxPoint x="-10" y="80" as="targetPoint" />
          </mxGeometry>
        </mxCell>
        <mxCell id="6j3AMUGMRrYXmEL0zxzn-84" value="" style="endArrow=none;html=1;rounded=0;" parent="1" edge="1">
          <mxGeometry width="50" height="50" relative="1" as="geometry">
            <mxPoint x="-10" y="80" as="sourcePoint" />
            <mxPoint x="20" y="110" as="targetPoint" />
          </mxGeometry>
        </mxCell>
        <mxCell id="6j3AMUGMRrYXmEL0zxzn-86" value="&lt;font style=&quot;font-size: 14px;&quot;&gt;15.Faire la vaisselle&lt;/font&gt;" style="text;html=1;align=center;verticalAlign=middle;resizable=0;points=[];autosize=1;strokeColor=none;fillColor=none;" parent="1" vertex="1">
          <mxGeometry x="1726" y="776" width="150" height="30" as="geometry" />
        </mxCell>
        <mxCell id="6j3AMUGMRrYXmEL0zxzn-88" value="&lt;font style=&quot;font-size: 14px;&quot;&gt;8.préparer les ingrédients&lt;/font&gt;" style="text;html=1;align=center;verticalAlign=middle;resizable=0;points=[];autosize=1;strokeColor=none;fillColor=none;" parent="1" vertex="1">
          <mxGeometry x="1130" y="368" width="180" height="30" as="geometry" />
        </mxCell>
        <mxCell id="_oyhGa1jermm28XdPZ98-1" value="Text" style="text;html=1;align=center;verticalAlign=middle;resizable=0;points=[];autosize=1;strokeColor=none;fillColor=none;" parent="1" vertex="1">
          <mxGeometry x="1311" y="1745" width="40" height="26" as="geometry" />
        </mxCell>
      </root>
    </mxGraphModel>
  </diagram>
</mxfile>
